<svg width="50" height="50" viewBox="0 0 50 50" fill="none" xmlns="http://www.w3.org/2000/svg">
<circle cx="25" cy="25" r="25" fill="#070328"/>
<g clip-path="url(#clip0_325_28727)">
<path d="M38.3351 17.2594C37.7648 16.6619 36.9772 16.3088 36.0809 16.3088H31.5725V16.2545C31.5725 15.5755 31.3009 14.9237 30.8392 14.4892C30.3775 14.0275 29.7529 13.7559 29.0739 13.7559H20.9261C20.22 13.7559 19.5953 14.0275 19.1336 14.4892C18.6719 14.9509 18.4003 15.5755 18.4003 16.2545V16.3088H13.9191C13.0228 16.3088 12.2352 16.6619 11.6649 17.2594C11.0945 17.8297 10.7143 18.6445 10.7143 19.5136V33.0389C10.7143 33.9351 11.0674 34.7227 11.6649 35.2931C12.2352 35.8634 13.05 36.2436 13.9191 36.2436H36.0809C36.9772 36.2436 37.7648 35.8906 38.3351 35.2931C38.9055 34.7227 39.2857 33.9079 39.2857 33.0389V19.5136C39.2857 18.6173 38.9326 17.8297 38.3351 17.2594ZM37.8734 33.0389H37.8463C37.8463 33.5277 37.6562 33.9623 37.3303 34.2882C37.0044 34.6141 36.5698 34.8042 36.0809 34.8042H13.9191C13.4302 34.8042 12.9957 34.6141 12.6698 34.2882C12.3438 33.9623 12.1537 33.5277 12.1537 33.0389V19.5136C12.1537 19.0247 12.3438 18.5902 12.6698 18.2643C12.9957 17.9384 13.4302 17.7483 13.9191 17.7483H19.1608C19.5682 17.7483 19.8941 17.4223 19.8941 17.015V16.2273C19.8941 15.9286 20.0027 15.657 20.1928 15.4669C20.383 15.2768 20.6545 15.1681 20.9533 15.1681H29.0739C29.3726 15.1681 29.6442 15.2768 29.8343 15.4669C30.0245 15.657 30.1331 15.9286 30.1331 16.2273V17.015C30.1331 17.4223 30.459 17.7483 30.8664 17.7483H36.1081C36.597 17.7483 37.0315 17.9384 37.3574 18.2643C37.6833 18.5902 37.8734 19.0247 37.8734 19.5136V33.0389Z" fill="white"/>
<path d="M25 19.5947C23.1532 19.5947 21.4693 20.3552 20.2743 21.5502C19.0521 22.7723 18.3188 24.4291 18.3188 26.2759C18.3188 28.1227 19.0793 29.8066 20.2743 31.0016C21.4965 32.2237 23.1532 32.957 25 32.957C26.8468 32.957 28.5307 32.1966 29.7257 31.0016C30.9479 29.7794 31.6811 28.1227 31.6811 26.2759C31.6811 24.4291 30.9207 22.7452 29.7257 21.5502C28.5307 20.3552 26.8468 19.5947 25 19.5947ZM28.6936 29.9967C27.7431 30.9201 26.4394 31.5176 25 31.5176C23.5606 31.5176 22.2569 30.9201 21.3064 29.9967C20.3558 29.0461 19.7854 27.7425 19.7854 26.303C19.7854 24.8636 20.3829 23.56 21.3064 22.6094C22.2569 21.6588 23.5606 21.0885 25 21.0885C26.4394 21.0885 27.7431 21.686 28.6936 22.6094C29.6442 23.56 30.2146 24.8636 30.2146 26.303C30.2417 27.7425 29.6442 29.0461 28.6936 29.9967Z" fill="white"/>
<path d="M34.6687 22.23C35.4036 22.23 35.9995 21.6341 35.9995 20.8992C35.9995 20.1642 35.4036 19.5684 34.6687 19.5684C33.9337 19.5684 33.3379 20.1642 33.3379 20.8992C33.3379 21.6341 33.9337 22.23 34.6687 22.23Z" fill="white"/>
</g>
<defs>
<clipPath id="clip0_325_28727">
<rect width="28.5714" height="28.5714" fill="white" transform="translate(10.7143 10.7139)"/>
</clipPath>
</defs>
</svg>
