<svg width="250" height="48" viewBox="0 0 250 48" fill="none" xmlns="http://www.w3.org/2000/svg">
<path d="M86.994 17.6809H92.4611V40.0687H86.994V37.4278C85.356 39.6067 83.0517 40.6976 80.0865 40.6976C77.2608 40.6976 74.838 39.5567 72.8207 37.2747C70.8009 34.9901 69.7923 32.1933 69.7923 28.879C69.7923 25.5647 70.8009 22.7679 72.8207 20.4832C74.8406 18.1986 77.2634 17.0576 80.0865 17.0576C83.0517 17.0576 85.356 18.1485 86.994 20.3274V17.6809ZM76.9105 33.4205C78.0113 34.6005 79.4097 35.1904 81.1056 35.1904C82.8016 35.1904 84.2052 34.6005 85.3218 33.4205C86.4384 32.2406 86.9967 30.7268 86.9967 28.8762C86.9967 27.0256 86.4384 25.5118 85.3218 24.3319C84.2052 23.152 82.8016 22.5648 81.1056 22.5648C79.4097 22.5648 78.0113 23.1547 76.9105 24.3319C75.8097 25.5118 75.2593 27.0256 75.2593 28.8762C75.2567 30.7268 75.8097 32.2406 76.9105 33.4205ZM102.292 24.0397C102.292 24.638 102.666 25.1222 103.414 25.4951C104.164 25.868 105.073 26.1964 106.147 26.4802C107.219 26.7641 108.293 27.123 109.368 27.5544C110.44 27.9885 111.351 28.712 112.099 29.725C112.847 30.7407 113.221 32.0097 113.221 33.5319C113.221 35.8305 112.407 37.5975 110.785 38.8359C109.16 40.0743 107.135 40.6948 104.704 40.6948C100.354 40.6948 97.3883 38.9194 95.8056 35.3685L100.551 32.5467C101.173 34.4864 102.558 35.4576 104.704 35.4576C106.653 35.4576 107.627 34.8147 107.627 33.5319C107.627 32.9336 107.253 32.4493 106.503 32.0764C105.755 31.7035 104.844 31.3668 103.769 31.0691C102.695 30.7713 101.623 30.3984 100.548 29.9504C99.4766 29.5023 98.5654 28.7927 97.8149 27.8243C97.067 26.8531 96.6931 25.637 96.6931 24.176C96.6931 21.9665 97.462 20.2272 99.0026 18.961C100.541 17.6921 102.455 17.0576 104.744 17.0576C106.466 17.0576 108.035 17.4695 109.447 18.2904C110.858 19.1113 111.975 20.2829 112.794 21.8051L108.133 24.4905C107.456 22.9683 106.324 22.2058 104.744 22.2058C104.038 22.2058 103.453 22.37 102.984 22.6984C102.524 23.0267 102.292 23.4748 102.292 24.0397ZM128.223 23.2354H123.436V32.5495C123.436 33.3259 123.62 33.8936 123.986 34.2498C124.352 34.6088 124.89 34.8092 125.595 34.8565C126.301 34.901 127.178 34.8927 128.223 34.8342V40.0715C124.466 40.5195 121.819 40.1466 120.278 38.9528C118.738 37.759 117.969 35.6245 117.969 32.5495V23.2354H114.282V17.6837H117.969V13.1617L123.436 11.4168V17.6837H128.223V23.2354ZM137.883 21.5351C138.391 20.102 139.231 19.0278 140.403 18.3099C141.575 17.5947 142.881 17.2357 144.324 17.2357V23.6835C142.657 23.4748 141.167 23.8337 139.853 24.7576C138.539 25.6815 137.883 27.2204 137.883 29.3688V40.0687H132.416V17.6809H137.883V21.5351ZM164.747 37.272C162.572 39.5566 159.917 40.6948 156.781 40.6948C153.644 40.6948 150.998 39.5539 148.836 37.272C146.673 34.9873 145.594 32.1905 145.594 28.8762C145.594 25.5619 146.673 22.7652 148.836 20.4805C150.995 18.1958 153.644 17.0548 156.781 17.0548C159.915 17.0548 162.572 18.1958 164.747 20.4805C166.922 22.7624 168.01 25.5619 168.01 28.8762C168.01 32.1905 166.922 34.9873 164.747 37.272ZM152.691 33.3092C153.779 34.4752 155.143 35.0568 156.781 35.0568C158.419 35.0568 159.788 34.4752 160.892 33.3092C161.992 32.146 162.543 30.6683 162.543 28.8762C162.543 27.0841 161.992 25.6064 160.892 24.4432C159.791 23.28 158.421 22.6956 156.781 22.6956C155.143 22.6956 153.779 23.2772 152.691 24.4432C151.603 25.6064 151.061 27.0841 151.061 28.8762C151.061 30.6683 151.606 32.146 152.691 33.3092ZM183.689 17.1466C186.713 17.1466 189.291 18.282 191.421 20.55C193.554 22.818 194.621 25.5925 194.621 28.879C194.621 32.1655 193.554 34.94 191.421 37.208C189.288 39.4759 186.71 40.6113 183.689 40.6113C179.931 40.6113 177.079 38.9695 175.131 35.6858V40.0742H172.334V8.72863H175.131V22.0722C177.077 18.7885 179.931 17.1466 183.689 17.1466ZM177.546 35.1682C179.155 36.8851 181.132 37.7423 183.476 37.7423C185.823 37.7423 187.8 36.8851 189.409 35.1682C191.018 33.4512 191.824 31.3557 191.824 28.8762C191.824 26.3995 191.018 24.3013 189.409 22.5843C187.8 20.8673 185.823 20.0102 183.476 20.0102C181.132 20.0102 179.155 20.8701 177.546 22.5843C175.937 24.3013 175.131 26.3967 175.131 28.8762C175.128 31.3557 175.934 33.4512 177.546 35.1682ZM199.28 40.0715V7.38454H202.076V40.0687H199.28V40.0715ZM225.785 37.2274C223.626 39.4815 220.99 40.6086 217.882 40.6086C214.775 40.6086 212.141 39.4815 209.982 37.2274C207.82 34.9734 206.74 32.1905 206.74 28.8762C206.74 25.5619 207.82 22.7791 209.982 20.525C212.144 18.2709 214.777 17.1439 217.882 17.1439C220.99 17.1439 223.626 18.2709 225.785 20.525C227.947 22.7791 229.027 25.5619 229.027 28.8762C229.027 32.1905 227.945 34.9734 225.785 37.2274ZM211.949 35.1682C213.561 36.8851 215.536 37.7423 217.88 37.7423C220.226 37.7423 222.204 36.8851 223.813 35.1682C225.422 33.4512 226.228 31.3557 226.228 28.8762C226.228 26.3995 225.422 24.3013 223.813 22.5843C222.204 20.8673 220.226 20.0102 217.88 20.0102C215.536 20.0102 213.558 20.8701 211.949 22.5843C210.34 24.3013 209.534 26.3967 209.534 28.8762C209.534 31.3557 210.34 33.4512 211.949 35.1682ZM250 40.0715H246.653L240.043 30.8325L233.433 40.0715H230.086L238.368 28.4977L230.636 17.6837H233.983L235.943 20.422L240.043 26.1518L241.718 28.495L244.154 31.8983L244.628 32.5607L250 40.0715ZM241.649 23.9089L246.102 17.6837H249.45L243.324 26.252L241.649 23.9089Z" fill="white"/>
<path fill-rule="evenodd" clip-rule="evenodd" d="M245.652 17.6808L241.199 23.9088L242.874 26.2491L248.999 17.6808H245.652Z" fill="#EA00F2"/>
<path fill-rule="evenodd" clip-rule="evenodd" d="M45.5703 35.0747C36.5004 31.5068 30.485 30.6767 21.6302 35.3101C19.6043 36.3693 17.5314 37.4058 15.3939 38.1925C9.02662 40.536 3.96366 36.6315 0.793692 31.0463C-0.58107 34.8476 -0.191913 39.4272 2.13325 42.8526C5.12918 47.2712 10.6341 49.1109 15.4937 47.3228C17.9616 46.4143 20.3337 45.2457 22.6726 44.0213C29.6187 40.3873 33.1309 41.4052 40.0869 44.1431C44.219 45.7701 48.7891 44.7852 51.9747 41.7707C54.8651 37.573 54.6988 32.374 51.7557 28.9836C53.8267 32.7704 52.1605 37.668 45.5703 35.0747Z" fill="url(#paint0_linear_495_1807)"/>
<path fill-rule="evenodd" clip-rule="evenodd" d="M36.2127 8.418L51.4818 28.6423C54.5813 32.747 53.9086 40.5043 49.8821 43.3227C52.1701 42.0302 53.1088 40.5374 53.6036 39.8147C56.6934 35.3156 56.5604 29.2142 53.2809 24.87L38.0099 4.64568C37.9023 4.50322 37.7909 4.36282 37.6774 4.22448C35.0433 3.59679 31.9633 4.16873 29.337 8.40148C30.348 6.56178 34.0636 5.56864 36.2127 8.418Z" fill="url(#paint1_linear_495_1807)"/>
<path fill-rule="evenodd" clip-rule="evenodd" d="M15.0304 38.2995C13.683 38.6257 12.2516 38.0682 11.4322 36.8624C10.5346 35.5389 10.5698 33.757 11.5202 32.4748L27.5734 10.7886C27.6321 10.7081 27.6927 10.6255 27.7533 10.545L28.7761 9.1616C30.274 7.13813 35.075 1.86267 39.1738 6.14498C36.3383 2.02373 33.8097 -0.0265817 28.8426 0.000260149C25.2502 0.018843 21.8964 1.7553 19.6847 4.74301L2.4268 28.0562C1.64653 29.1113 1.11266 30.1106 0.791952 31.046C-1.57428 37.965 7.75572 41.3842 15.0304 38.2995Z" fill="url(#paint2_linear_495_1807)"/>
<defs>
<linearGradient id="paint0_linear_495_1807" x1="1.33687" y1="40.0612" x2="55.7955" y2="35.325" gradientUnits="userSpaceOnUse">
<stop stop-color="#EA00F2"/>
<stop offset="0.1718" stop-color="#E600EE"/>
<stop offset="0.3533" stop-color="#DB00E1"/>
<stop offset="0.5394" stop-color="#C800CC"/>
<stop offset="0.7285" stop-color="#AD01AE"/>
<stop offset="0.9182" stop-color="#8B0189"/>
<stop offset="1" stop-color="#7A0176"/>
</linearGradient>
<linearGradient id="paint1_linear_495_1807" x1="55.0629" y1="39.6732" x2="32.019" y2="6.23684" gradientUnits="userSpaceOnUse">
<stop stop-color="#E018D6"/>
<stop offset="0.3459" stop-color="#DE18D4"/>
<stop offset="0.521" stop-color="#D616CD"/>
<stop offset="0.6574" stop-color="#C914C0"/>
<stop offset="0.7123" stop-color="#C112B9"/>
<stop offset="0.7869" stop-color="#AF0EA8"/>
<stop offset="0.9357" stop-color="#81057C"/>
<stop offset="1" stop-color="#6B0167"/>
</linearGradient>
<linearGradient id="paint2_linear_495_1807" x1="19.798" y1="0.449675" x2="19.798" y2="40.1274" gradientUnits="userSpaceOnUse">
<stop stop-color="#EA00F2"/>
<stop offset="0.1603" stop-color="#E300EA"/>
<stop offset="0.4053" stop-color="#D000D5"/>
<stop offset="0.7027" stop-color="#B101B2"/>
<stop offset="1" stop-color="#8B0189"/>
</linearGradient>
</defs>
</svg>
