<svg width="46" height="45" viewBox="0 0 46 45" fill="none" xmlns="http://www.w3.org/2000/svg">
<g filter="url(#filter0_i_1267_30775)">
<path d="M23.589 9.45988C24.5543 7.76811 27.1224 8.31398 27.3161 10.2521L28.1857 18.9501L36.6961 20.759C38.583 21.1601 38.8645 23.7364 37.1089 24.5356L29.1082 28.1775L29.9852 36.9492C30.1783 38.8803 27.7844 39.927 26.4978 38.4741L20.7494 31.9824L12.8577 35.5748C11.0913 36.3788 9.33015 34.4489 10.292 32.7633L14.6609 25.1066L8.83326 18.5254C7.55443 17.0812 8.85956 14.8422 10.7464 15.2432L19.2568 17.0522L23.589 9.45988Z" fill="url(#paint0_linear_1267_30775)"/>
</g>
<path d="M17.9288 25.8471C18.2349 27.3969 22.9598 30.9251 26.3865 27.3776" stroke="#ECCBE9" stroke-linecap="round"/>
<ellipse cx="20.1095" cy="21.5425" rx="0.816943" ry="1.37578" transform="rotate(12 20.1095 21.5425)" fill="#ECCBE9"/>
<ellipse cx="24.9042" cy="22.5624" rx="0.816943" ry="1.37578" transform="rotate(12 24.9042 22.5624)" fill="#ECCBE9"/>
<defs>
<filter id="filter0_i_1267_30775" x="8.32275" y="8.44922" width="31.958" height="32.7048" filterUnits="userSpaceOnUse" color-interpolation-filters="sRGB">
<feFlood flood-opacity="0" result="BackgroundImageFix"/>
<feBlend mode="normal" in="SourceGraphic" in2="BackgroundImageFix" result="shape"/>
<feColorMatrix in="SourceAlpha" type="matrix" values="0 0 0 0 0 0 0 0 0 0 0 0 0 0 0 0 0 0 127 0" result="hardAlpha"/>
<feOffset dx="2" dy="2"/>
<feGaussianBlur stdDeviation="2"/>
<feComposite in2="hardAlpha" operator="arithmetic" k2="-1" k3="1"/>
<feColorMatrix type="matrix" values="0 0 0 0 1 0 0 0 0 0.675 0 0 0 0 0.9825 0 0 0 1 0"/>
<feBlend mode="normal" in2="shape" result="effect1_innerShadow_1267_30775"/>
</filter>
<linearGradient id="paint0_linear_1267_30775" x1="-10.7475" y1="0.318896" x2="69.5496" y2="63.1431" gradientUnits="userSpaceOnUse">
<stop stop-color="#DD2590"/>
<stop offset="1" stop-color="#7A5AF8"/>
</linearGradient>
</defs>
</svg>
