<svg width="210" height="30" viewBox="0 0 210 30" fill="none" xmlns="http://www.w3.org/2000/svg">
<path fill-rule="evenodd" clip-rule="evenodd" d="M27.592 21.4602C22.15 19.3789 18.5408 18.8947 13.228 21.5975C12.0124 22.2154 10.7686 22.82 9.48618 23.2789C5.66579 24.646 2.62801 22.3684 0.726032 19.1103C-0.0988253 21.3277 0.134669 23.9992 1.52977 25.9973C3.32732 28.5748 6.63027 29.648 9.54602 28.605C11.0268 28.075 12.45 27.3933 13.8533 26.6791C18.021 24.5592 20.1284 25.153 24.3019 26.7501C26.7812 27.6992 29.5233 27.1247 31.4347 25.3662C33.1689 22.9176 33.0691 19.8848 31.3032 17.9071C32.5458 20.1161 31.5461 22.973 27.592 21.4602Z" fill="white"/>
<path fill-rule="evenodd" clip-rule="evenodd" d="M21.9774 5.91056L31.1389 17.7081C32.9986 20.1025 32.595 24.6276 30.1791 26.2717C31.5519 25.5177 32.1151 24.6469 32.412 24.2253C34.2658 21.6008 34.186 18.0417 32.2184 15.5076L23.0557 3.71004C22.9912 3.62693 22.9243 3.54503 22.8563 3.46434C21.2758 3.09818 19.4278 3.43181 17.852 5.90092C18.4586 4.82776 20.688 4.24843 21.9774 5.91056Z" fill="white"/>
<path fill-rule="evenodd" clip-rule="evenodd" d="M9.26809 23.3414C8.45966 23.5317 7.60077 23.2065 7.10915 22.5031C6.57058 21.731 6.5917 20.6916 7.16195 19.9436L16.7939 7.29336C16.8291 7.24639 16.8655 7.19821 16.9018 7.15124L17.5155 6.34426C18.4143 5.16391 21.2948 2.08656 23.7541 4.58457C22.0528 2.18051 20.5357 0.984494 17.5554 1.00015C15.4 1.01099 13.3877 2.02393 12.0606 3.76676L1.70592 17.3661C1.23776 17.9816 0.917436 18.5645 0.725008 19.1101C-0.694732 23.1462 4.90327 25.1408 9.26809 23.3414Z" fill="white"/>
<path d="M51.0091 9.01705V7.45455H61.9182V9.01705H57.3443V22H55.5829V9.01705H51.0091ZM67.4011 22.2273C66.35 22.2273 65.4432 21.9953 64.6809 21.5312C63.9234 21.0625 63.3386 20.4091 62.9267 19.571C62.5195 18.7282 62.3159 17.7481 62.3159 16.6307C62.3159 15.5133 62.5195 14.5284 62.9267 13.6761C63.3386 12.8191 63.9115 12.1515 64.6454 11.6733C65.3841 11.1903 66.2458 10.9489 67.2307 10.9489C67.7988 10.9489 68.3599 11.0436 68.9139 11.233C69.4679 11.4223 69.9721 11.7301 70.4267 12.1562C70.8812 12.5777 71.2434 13.1364 71.5133 13.8324C71.7832 14.5284 71.9182 15.3854 71.9182 16.4034V17.1136H63.5091V15.6648H70.2136C70.2136 15.0492 70.0905 14.5 69.8443 14.017C69.6028 13.5341 69.2572 13.1529 68.8074 12.8736C68.3623 12.5942 67.8367 12.4545 67.2307 12.4545C66.563 12.4545 65.9854 12.6203 65.4977 12.9517C65.0147 13.2784 64.6431 13.7045 64.3826 14.2301C64.1222 14.7557 63.992 15.3191 63.992 15.9205V16.8864C63.992 17.7102 64.1341 18.4086 64.4182 18.9815C64.707 19.5497 65.1071 19.983 65.6184 20.2812C66.1298 20.5748 66.724 20.7216 67.4011 20.7216C67.8414 20.7216 68.2392 20.66 68.5943 20.5369C68.9541 20.4091 69.2643 20.2197 69.5247 19.9688C69.7851 19.7131 69.9863 19.3958 70.1284 19.017L71.7477 19.4716C71.5772 20.0208 71.2908 20.5038 70.8883 20.9205C70.4859 21.3324 69.9887 21.6544 69.3968 21.8864C68.805 22.1136 68.1397 22.2273 67.4011 22.2273ZM74.4679 22V11.0909H76.0872V12.7386H76.2008C76.3997 12.1989 76.7595 11.7609 77.2804 11.4247C77.8012 11.0885 78.3883 10.9205 79.0417 10.9205C79.1648 10.9205 79.3187 10.9228 79.5034 10.9276C79.688 10.9323 79.8277 10.9394 79.9224 10.9489V12.6534C79.8656 12.6392 79.7354 12.6179 79.5318 12.5895C79.3329 12.5563 79.1222 12.5398 78.8997 12.5398C78.3694 12.5398 77.8959 12.651 77.4792 12.8736C77.0673 13.0914 76.7406 13.3944 76.4991 13.7827C76.2624 14.1662 76.144 14.6042 76.144 15.0966V22H74.4679ZM81.9093 22V11.0909H83.5286V12.7955H83.6706C83.8979 12.2131 84.2649 11.7609 84.7715 11.4389C85.2781 11.1122 85.8865 10.9489 86.5968 10.9489C87.3165 10.9489 87.9154 11.1122 88.3936 11.4389C88.8766 11.7609 89.253 12.2131 89.5229 12.7955H89.6365C89.9159 12.232 90.3349 11.7846 90.8936 11.4531C91.4524 11.117 92.1223 10.9489 92.9036 10.9489C93.879 10.9489 94.6768 11.2543 95.2971 11.8651C95.9173 12.4711 96.2275 13.4157 96.2275 14.6989V22H94.5513V14.6989C94.5513 13.8939 94.3311 13.3187 93.8908 12.973C93.4505 12.6274 92.932 12.4545 92.3354 12.4545C91.5684 12.4545 90.9741 12.6866 90.5527 13.1506C90.1313 13.6098 89.9206 14.1922 89.9206 14.8977V22H88.2161V14.5284C88.2161 13.9081 88.0149 13.4086 87.6124 13.0298C87.2099 12.6463 86.6915 12.4545 86.057 12.4545C85.6214 12.4545 85.2142 12.5705 84.8354 12.8026C84.4614 13.0346 84.1583 13.3565 83.9263 13.7685C83.699 14.1757 83.5854 14.6468 83.5854 15.1818V22H81.9093ZM107.019 13.5341L105.514 13.9602C105.419 13.7093 105.279 13.4654 105.095 13.2287C104.915 12.9872 104.669 12.7884 104.356 12.6321C104.044 12.4759 103.643 12.3977 103.156 12.3977C102.488 12.3977 101.932 12.5516 101.487 12.8594C101.046 13.1624 100.826 13.5483 100.826 14.017C100.826 14.4337 100.978 14.7628 101.281 15.0043C101.584 15.2457 102.057 15.447 102.701 15.608L104.32 16.0057C105.296 16.2424 106.023 16.6046 106.501 17.0923C106.979 17.5753 107.218 18.1979 107.218 18.9602C107.218 19.5852 107.038 20.1439 106.678 20.6364C106.323 21.1288 105.826 21.517 105.187 21.8011C104.548 22.0852 103.804 22.2273 102.957 22.2273C101.844 22.2273 100.923 21.9858 100.194 21.5028C99.4649 21.0199 99.0033 20.3144 98.8091 19.3864L100.4 18.9886C100.552 19.5758 100.838 20.0161 101.259 20.3097C101.686 20.6032 102.242 20.75 102.928 20.75C103.71 20.75 104.33 20.5843 104.789 20.2528C105.253 19.9167 105.485 19.5142 105.485 19.0455C105.485 18.6667 105.353 18.3494 105.088 18.0938C104.822 17.8333 104.415 17.6392 103.866 17.5114L102.048 17.0852C101.049 16.8485 100.315 16.4815 99.8461 15.9844C99.382 15.4825 99.15 14.8551 99.15 14.1023C99.15 13.4867 99.3229 12.9422 99.6685 12.4688C100.019 11.9953 100.495 11.6236 101.096 11.3537C101.702 11.0838 102.389 10.9489 103.156 10.9489C104.235 10.9489 105.083 11.1856 105.698 11.6591C106.319 12.1326 106.759 12.7576 107.019 13.5341ZM119.798 22.2273C118.813 22.2273 117.949 21.9929 117.206 21.5241C116.467 21.0554 115.89 20.3996 115.473 19.5568C115.061 18.714 114.855 17.7292 114.855 16.6023C114.855 15.4659 115.061 14.474 115.473 13.6264C115.89 12.7789 116.467 12.1207 117.206 11.652C117.949 11.1832 118.813 10.9489 119.798 10.9489C120.783 10.9489 121.645 11.1832 122.383 11.652C123.127 12.1207 123.704 12.7789 124.116 13.6264C124.533 14.474 124.741 15.4659 124.741 16.6023C124.741 17.7292 124.533 18.714 124.116 19.5568C123.704 20.3996 123.127 21.0554 122.383 21.5241C121.645 21.9929 120.783 22.2273 119.798 22.2273ZM119.798 20.7216C120.546 20.7216 121.162 20.5298 121.645 20.1463C122.128 19.7628 122.485 19.2585 122.717 18.6335C122.949 18.0085 123.065 17.3314 123.065 16.6023C123.065 15.8731 122.949 15.1937 122.717 14.5639C122.485 13.9342 122.128 13.4252 121.645 13.0369C121.162 12.6487 120.546 12.4545 119.798 12.4545C119.05 12.4545 118.434 12.6487 117.952 13.0369C117.469 13.4252 117.111 13.9342 116.879 14.5639C116.647 15.1937 116.531 15.8731 116.531 16.6023C116.531 17.3314 116.647 18.0085 116.879 18.6335C117.111 19.2585 117.469 19.7628 117.952 20.1463C118.434 20.5298 119.05 20.7216 119.798 20.7216ZM132.158 11.0909V12.5114H126.277V11.0909H132.158ZM128.039 22V9.58523C128.039 8.96023 128.185 8.43939 128.479 8.02273C128.772 7.60606 129.154 7.29356 129.622 7.08523C130.091 6.87689 130.586 6.77273 131.107 6.77273C131.519 6.77273 131.855 6.80587 132.115 6.87216C132.376 6.93845 132.57 7 132.698 7.05682L132.215 8.50568C132.129 8.47727 132.011 8.44176 131.86 8.39915C131.713 8.35653 131.519 8.33523 131.277 8.33523C130.723 8.33523 130.323 8.4749 130.077 8.75426C129.835 9.03362 129.715 9.44318 129.715 9.98295V22H128.039ZM148.314 11.0909C148.229 10.3712 147.883 9.8125 147.277 9.41477C146.671 9.01705 145.927 8.81818 145.047 8.81818C144.403 8.81818 143.839 8.92235 143.356 9.13068C142.878 9.33901 142.504 9.62547 142.234 9.99006C141.969 10.3546 141.836 10.7689 141.836 11.233C141.836 11.6212 141.929 11.955 142.113 12.2344C142.303 12.509 142.544 12.7386 142.838 12.9233C143.131 13.1032 143.439 13.2524 143.761 13.3707C144.083 13.4844 144.379 13.5767 144.649 13.6477L146.126 14.0455C146.505 14.1449 146.926 14.2822 147.39 14.4574C147.859 14.6326 148.307 14.8717 148.733 15.1747C149.164 15.473 149.519 15.8565 149.798 16.3253C150.077 16.794 150.217 17.3693 150.217 18.0511C150.217 18.8371 150.011 19.5473 149.599 20.1818C149.192 20.8163 148.595 21.3205 147.809 21.6946C147.028 22.0687 146.079 22.2557 144.961 22.2557C143.92 22.2557 143.018 22.0876 142.256 21.7514C141.498 21.4152 140.901 20.9465 140.466 20.3452C140.035 19.7438 139.791 19.0455 139.734 18.25H141.552C141.6 18.7992 141.784 19.2538 142.106 19.6136C142.433 19.9687 142.845 20.2339 143.342 20.4091C143.844 20.5795 144.384 20.6648 144.961 20.6648C145.634 20.6648 146.238 20.5559 146.773 20.3381C147.308 20.1155 147.731 19.8078 148.044 19.4148C148.356 19.017 148.513 18.553 148.513 18.0227C148.513 17.5398 148.378 17.1468 148.108 16.8438C147.838 16.5407 147.483 16.2945 147.042 16.1051C146.602 15.9157 146.126 15.75 145.615 15.608L143.825 15.0966C142.689 14.7699 141.789 14.3035 141.126 13.6974C140.463 13.0914 140.132 12.2983 140.132 11.3182C140.132 10.5038 140.352 9.79356 140.792 9.1875C141.238 8.5767 141.834 8.10322 142.582 7.76705C143.335 7.42614 144.175 7.25568 145.104 7.25568C146.041 7.25568 146.874 7.42377 147.604 7.75994C148.333 8.09138 148.91 8.54593 149.336 9.12358C149.767 9.70123 149.995 10.357 150.018 11.0909H148.314ZM157.46 22.2273C156.409 22.2273 155.502 21.9953 154.74 21.5312C153.982 21.0625 153.397 20.4091 152.985 19.571C152.578 18.7282 152.374 17.7481 152.374 16.6307C152.374 15.5133 152.578 14.5284 152.985 13.6761C153.397 12.8191 153.97 12.1515 154.704 11.6733C155.443 11.1903 156.304 10.9489 157.289 10.9489C157.857 10.9489 158.419 11.0436 158.972 11.233C159.526 11.4223 160.031 11.7301 160.485 12.1562C160.94 12.5777 161.302 13.1364 161.572 13.8324C161.842 14.5284 161.977 15.3854 161.977 16.4034V17.1136H153.568V15.6648H160.272C160.272 15.0492 160.149 14.5 159.903 14.017C159.661 13.5341 159.316 13.1529 158.866 12.8736C158.421 12.5942 157.895 12.4545 157.289 12.4545C156.622 12.4545 156.044 12.6203 155.556 12.9517C155.073 13.2784 154.702 13.7045 154.441 14.2301C154.181 14.7557 154.051 15.3191 154.051 15.9205V16.8864C154.051 17.7102 154.193 18.4086 154.477 18.9815C154.766 19.5497 155.166 19.983 155.677 20.2812C156.188 20.5748 156.783 20.7216 157.46 20.7216C157.9 20.7216 158.298 20.66 158.653 20.5369C159.013 20.4091 159.323 20.2197 159.583 19.9688C159.844 19.7131 160.045 19.3958 160.187 19.017L161.806 19.4716C161.636 20.0208 161.349 20.5038 160.947 20.9205C160.544 21.3324 160.047 21.6544 159.455 21.8864C158.864 22.1136 158.198 22.2273 157.46 22.2273ZM164.526 22V11.0909H166.146V12.7386H166.259C166.458 12.1989 166.818 11.7609 167.339 11.4247C167.86 11.0885 168.447 10.9205 169.1 10.9205C169.223 10.9205 169.377 10.9228 169.562 10.9276C169.747 10.9323 169.886 10.9394 169.981 10.9489V12.6534C169.924 12.6392 169.794 12.6179 169.59 12.5895C169.392 12.5563 169.181 12.5398 168.958 12.5398C168.428 12.5398 167.954 12.651 167.538 12.8736C167.126 13.0914 166.799 13.3944 166.558 13.7827C166.321 14.1662 166.203 14.6042 166.203 15.0966V22H164.526ZM181.22 11.0909L177.186 22H175.482L171.448 11.0909H173.266L176.277 19.7841H176.391L179.402 11.0909H181.22ZM183.433 22V11.0909H185.109V22H183.433ZM184.285 9.27273C183.958 9.27273 183.677 9.16146 183.44 8.93892C183.208 8.71638 183.092 8.44886 183.092 8.13636C183.092 7.82386 183.208 7.55634 183.44 7.33381C183.677 7.11127 183.958 7 184.285 7C184.612 7 184.891 7.11127 185.123 7.33381C185.36 7.55634 185.478 7.82386 185.478 8.13636C185.478 8.44886 185.36 8.71638 185.123 8.93892C184.891 9.16146 184.612 9.27273 184.285 9.27273ZM192.611 22.2273C191.588 22.2273 190.707 21.9858 189.969 21.5028C189.23 21.0199 188.662 20.3546 188.264 19.5071C187.866 18.6596 187.667 17.6913 187.667 16.6023C187.667 15.4943 187.871 14.5166 188.278 13.669C188.69 12.8168 189.263 12.1515 189.997 11.6733C190.736 11.1903 191.597 10.9489 192.582 10.9489C193.349 10.9489 194.041 11.0909 194.656 11.375C195.272 11.6591 195.776 12.0568 196.169 12.5682C196.562 13.0795 196.806 13.6761 196.9 14.358H195.224C195.096 13.8608 194.812 13.4205 194.372 13.0369C193.936 12.6487 193.349 12.4545 192.611 12.4545C191.957 12.4545 191.384 12.625 190.892 12.9659C190.404 13.3021 190.023 13.7779 189.748 14.3935C189.479 15.0043 189.344 15.7216 189.344 16.5455C189.344 17.3883 189.476 18.1222 189.741 18.7472C190.011 19.3722 190.39 19.8575 190.878 20.2031C191.37 20.5488 191.948 20.7216 192.611 20.7216C193.046 20.7216 193.442 20.6458 193.797 20.4943C194.152 20.3428 194.452 20.125 194.699 19.8409C194.945 19.5568 195.12 19.2159 195.224 18.8182H196.9C196.806 19.4621 196.571 20.0421 196.197 20.5582C195.828 21.0696 195.338 21.4768 194.727 21.7798C194.121 22.0781 193.416 22.2273 192.611 22.2273ZM203.925 22.2273C202.873 22.2273 201.967 21.9953 201.204 21.5312C200.447 21.0625 199.862 20.4091 199.45 19.571C199.043 18.7282 198.839 17.7481 198.839 16.6307C198.839 15.5133 199.043 14.5284 199.45 13.6761C199.862 12.8191 200.435 12.1515 201.169 11.6733C201.907 11.1903 202.769 10.9489 203.754 10.9489C204.322 10.9489 204.883 11.0436 205.437 11.233C205.991 11.4223 206.496 11.7301 206.95 12.1562C207.405 12.5777 207.767 13.1364 208.037 13.8324C208.307 14.5284 208.442 15.3854 208.442 16.4034V17.1136H200.032V15.6648H206.737C206.737 15.0492 206.614 14.5 206.368 14.017C206.126 13.5341 205.781 13.1529 205.331 12.8736C204.886 12.5942 204.36 12.4545 203.754 12.4545C203.086 12.4545 202.509 12.6203 202.021 12.9517C201.538 13.2784 201.166 13.7045 200.906 14.2301C200.646 14.7557 200.515 15.3191 200.515 15.9205V16.8864C200.515 17.7102 200.657 18.4086 200.942 18.9815C201.23 19.5497 201.631 19.983 202.142 20.2812C202.653 20.5748 203.247 20.7216 203.925 20.7216C204.365 20.7216 204.763 20.66 205.118 20.5369C205.478 20.4091 205.788 20.2197 206.048 19.9688C206.309 19.7131 206.51 19.3958 206.652 19.017L208.271 19.4716C208.101 20.0208 207.814 20.5038 207.412 20.9205C207.009 21.3324 206.512 21.6544 205.92 21.8864C205.328 22.1136 204.663 22.2273 203.925 22.2273Z" fill="white"/>
</svg>
